<mxfile host="app.diagrams.net" modified="2023-05-21T14:41:52.982Z" agent="Mozilla/5.0 (Windows NT 10.0; Win64; x64) AppleWebKit/537.36 (KHTML, like Gecko) Chrome/113.0.0.0 Safari/537.36" etag="7dUuE8i0PbNnLxO344Zz" version="21.3.2" type="device">
  <diagram name="페이지-1" id="4VKI3FWt3FUXycae26qv">
    <mxGraphModel dx="1724" dy="1246" grid="1" gridSize="10" guides="1" tooltips="1" connect="1" arrows="1" fold="1" page="1" pageScale="1" pageWidth="2339" pageHeight="3300" math="0" shadow="0">
      <root>
        <mxCell id="0" />
        <mxCell id="1" parent="0" />
        <mxCell id="K_3EB38ikw6anOw7ejb6-409" style="edgeStyle=orthogonalEdgeStyle;rounded=0;orthogonalLoop=1;jettySize=auto;html=1;exitX=1;exitY=0;exitDx=0;exitDy=0;entryX=0;entryY=0.5;entryDx=0;entryDy=0;" edge="1" parent="1" source="K_3EB38ikw6anOw7ejb6-1" target="K_3EB38ikw6anOw7ejb6-407">
          <mxGeometry relative="1" as="geometry" />
        </mxCell>
        <mxCell id="K_3EB38ikw6anOw7ejb6-417" style="edgeStyle=orthogonalEdgeStyle;rounded=0;orthogonalLoop=1;jettySize=auto;html=1;exitX=1;exitY=0.5;exitDx=0;exitDy=0;entryX=0;entryY=0.5;entryDx=0;entryDy=0;" edge="1" parent="1" source="K_3EB38ikw6anOw7ejb6-1" target="K_3EB38ikw6anOw7ejb6-416">
          <mxGeometry relative="1" as="geometry" />
        </mxCell>
        <mxCell id="K_3EB38ikw6anOw7ejb6-1" value="요즘 인기" style="whiteSpace=wrap;html=1;aspect=fixed;" vertex="1" parent="1">
          <mxGeometry x="220" y="350" width="80" height="80" as="geometry" />
        </mxCell>
        <mxCell id="K_3EB38ikw6anOw7ejb6-394" style="edgeStyle=orthogonalEdgeStyle;rounded=0;orthogonalLoop=1;jettySize=auto;html=1;exitX=0.25;exitY=0;exitDx=0;exitDy=0;entryX=0;entryY=0.5;entryDx=0;entryDy=0;" edge="1" parent="1" source="K_3EB38ikw6anOw7ejb6-2" target="K_3EB38ikw6anOw7ejb6-3">
          <mxGeometry relative="1" as="geometry" />
        </mxCell>
        <mxCell id="K_3EB38ikw6anOw7ejb6-395" style="edgeStyle=orthogonalEdgeStyle;rounded=0;orthogonalLoop=1;jettySize=auto;html=1;exitX=0.5;exitY=0;exitDx=0;exitDy=0;entryX=0;entryY=0.5;entryDx=0;entryDy=0;" edge="1" parent="1" source="K_3EB38ikw6anOw7ejb6-2" target="K_3EB38ikw6anOw7ejb6-4">
          <mxGeometry relative="1" as="geometry" />
        </mxCell>
        <mxCell id="K_3EB38ikw6anOw7ejb6-396" style="edgeStyle=orthogonalEdgeStyle;rounded=0;orthogonalLoop=1;jettySize=auto;html=1;exitX=0.75;exitY=0;exitDx=0;exitDy=0;entryX=0;entryY=0.5;entryDx=0;entryDy=0;" edge="1" parent="1" source="K_3EB38ikw6anOw7ejb6-2" target="K_3EB38ikw6anOw7ejb6-5">
          <mxGeometry relative="1" as="geometry" />
        </mxCell>
        <mxCell id="K_3EB38ikw6anOw7ejb6-397" style="edgeStyle=orthogonalEdgeStyle;rounded=0;orthogonalLoop=1;jettySize=auto;html=1;exitX=1;exitY=0;exitDx=0;exitDy=0;entryX=0;entryY=0.75;entryDx=0;entryDy=0;" edge="1" parent="1" source="K_3EB38ikw6anOw7ejb6-2" target="K_3EB38ikw6anOw7ejb6-6">
          <mxGeometry relative="1" as="geometry" />
        </mxCell>
        <mxCell id="K_3EB38ikw6anOw7ejb6-399" style="edgeStyle=orthogonalEdgeStyle;rounded=0;orthogonalLoop=1;jettySize=auto;html=1;exitX=1;exitY=0.25;exitDx=0;exitDy=0;entryX=0;entryY=0.25;entryDx=0;entryDy=0;" edge="1" parent="1" source="K_3EB38ikw6anOw7ejb6-2" target="K_3EB38ikw6anOw7ejb6-7">
          <mxGeometry relative="1" as="geometry" />
        </mxCell>
        <mxCell id="K_3EB38ikw6anOw7ejb6-400" style="edgeStyle=orthogonalEdgeStyle;rounded=0;orthogonalLoop=1;jettySize=auto;html=1;exitX=1;exitY=0.5;exitDx=0;exitDy=0;entryX=0;entryY=0.5;entryDx=0;entryDy=0;" edge="1" parent="1" source="K_3EB38ikw6anOw7ejb6-2" target="K_3EB38ikw6anOw7ejb6-387">
          <mxGeometry relative="1" as="geometry" />
        </mxCell>
        <mxCell id="K_3EB38ikw6anOw7ejb6-402" style="edgeStyle=orthogonalEdgeStyle;rounded=0;orthogonalLoop=1;jettySize=auto;html=1;exitX=1;exitY=1;exitDx=0;exitDy=0;entryX=0;entryY=0.5;entryDx=0;entryDy=0;" edge="1" parent="1" source="K_3EB38ikw6anOw7ejb6-2" target="K_3EB38ikw6anOw7ejb6-388">
          <mxGeometry relative="1" as="geometry" />
        </mxCell>
        <mxCell id="K_3EB38ikw6anOw7ejb6-403" style="edgeStyle=orthogonalEdgeStyle;rounded=0;orthogonalLoop=1;jettySize=auto;html=1;exitX=0.75;exitY=1;exitDx=0;exitDy=0;entryX=0;entryY=0.5;entryDx=0;entryDy=0;" edge="1" parent="1" source="K_3EB38ikw6anOw7ejb6-2" target="K_3EB38ikw6anOw7ejb6-389">
          <mxGeometry relative="1" as="geometry" />
        </mxCell>
        <mxCell id="K_3EB38ikw6anOw7ejb6-404" style="edgeStyle=orthogonalEdgeStyle;rounded=0;orthogonalLoop=1;jettySize=auto;html=1;exitX=0.5;exitY=1;exitDx=0;exitDy=0;entryX=0;entryY=0.5;entryDx=0;entryDy=0;" edge="1" parent="1" source="K_3EB38ikw6anOw7ejb6-2" target="K_3EB38ikw6anOw7ejb6-390">
          <mxGeometry relative="1" as="geometry" />
        </mxCell>
        <mxCell id="K_3EB38ikw6anOw7ejb6-405" style="edgeStyle=orthogonalEdgeStyle;rounded=0;orthogonalLoop=1;jettySize=auto;html=1;exitX=0.25;exitY=1;exitDx=0;exitDy=0;entryX=0;entryY=0.5;entryDx=0;entryDy=0;" edge="1" parent="1" source="K_3EB38ikw6anOw7ejb6-2" target="K_3EB38ikw6anOw7ejb6-391">
          <mxGeometry relative="1" as="geometry" />
        </mxCell>
        <mxCell id="K_3EB38ikw6anOw7ejb6-406" style="edgeStyle=orthogonalEdgeStyle;rounded=0;orthogonalLoop=1;jettySize=auto;html=1;exitX=0;exitY=1;exitDx=0;exitDy=0;entryX=0;entryY=0.5;entryDx=0;entryDy=0;" edge="1" parent="1" source="K_3EB38ikw6anOw7ejb6-2" target="K_3EB38ikw6anOw7ejb6-392">
          <mxGeometry relative="1" as="geometry" />
        </mxCell>
        <mxCell id="K_3EB38ikw6anOw7ejb6-426" style="edgeStyle=orthogonalEdgeStyle;rounded=0;orthogonalLoop=1;jettySize=auto;html=1;exitX=0;exitY=0;exitDx=0;exitDy=0;entryX=0;entryY=0.5;entryDx=0;entryDy=0;" edge="1" parent="1" source="K_3EB38ikw6anOw7ejb6-2" target="K_3EB38ikw6anOw7ejb6-1">
          <mxGeometry relative="1" as="geometry" />
        </mxCell>
        <mxCell id="K_3EB38ikw6anOw7ejb6-2" value="노래" style="whiteSpace=wrap;html=1;aspect=fixed;" vertex="1" parent="1">
          <mxGeometry x="50" y="1550" width="80" height="80" as="geometry" />
        </mxCell>
        <mxCell id="K_3EB38ikw6anOw7ejb6-483" style="edgeStyle=none;shape=connector;rounded=0;orthogonalLoop=1;jettySize=auto;html=1;exitX=1;exitY=0.5;exitDx=0;exitDy=0;entryX=0;entryY=0.5;entryDx=0;entryDy=0;labelBackgroundColor=default;strokeColor=default;fontFamily=Helvetica;fontSize=11;fontColor=default;endArrow=classic;" edge="1" parent="1" source="K_3EB38ikw6anOw7ejb6-3" target="K_3EB38ikw6anOw7ejb6-482">
          <mxGeometry relative="1" as="geometry" />
        </mxCell>
        <mxCell id="K_3EB38ikw6anOw7ejb6-3" value="밖은 어때?" style="whiteSpace=wrap;html=1;aspect=fixed;" vertex="1" parent="1">
          <mxGeometry x="220" y="730" width="80" height="80" as="geometry" />
        </mxCell>
        <mxCell id="K_3EB38ikw6anOw7ejb6-4" value="불러 볼까?" style="whiteSpace=wrap;html=1;aspect=fixed;" vertex="1" parent="1">
          <mxGeometry x="220" y="1140" width="80" height="80" as="geometry" />
        </mxCell>
        <mxCell id="K_3EB38ikw6anOw7ejb6-5" value="HAPPY" style="whiteSpace=wrap;html=1;aspect=fixed;" vertex="1" parent="1">
          <mxGeometry x="220" y="1280" width="80" height="80" as="geometry" />
        </mxCell>
        <mxCell id="K_3EB38ikw6anOw7ejb6-6" value="SAD" style="whiteSpace=wrap;html=1;aspect=fixed;" vertex="1" parent="1">
          <mxGeometry x="220" y="1410" width="80" height="80" as="geometry" />
        </mxCell>
        <mxCell id="K_3EB38ikw6anOw7ejb6-7" value="LOVE" style="whiteSpace=wrap;html=1;aspect=fixed;" vertex="1" parent="1">
          <mxGeometry x="220" y="1550" width="80" height="80" as="geometry" />
        </mxCell>
        <mxCell id="K_3EB38ikw6anOw7ejb6-387" value="외로운" style="whiteSpace=wrap;html=1;aspect=fixed;" vertex="1" parent="1">
          <mxGeometry x="220" y="1680" width="80" height="80" as="geometry" />
        </mxCell>
        <mxCell id="K_3EB38ikw6anOw7ejb6-388" value="잔잔한" style="whiteSpace=wrap;html=1;aspect=fixed;" vertex="1" parent="1">
          <mxGeometry x="220" y="1810" width="80" height="80" as="geometry" />
        </mxCell>
        <mxCell id="K_3EB38ikw6anOw7ejb6-389" value="귀여운" style="whiteSpace=wrap;html=1;aspect=fixed;" vertex="1" parent="1">
          <mxGeometry x="220" y="1940" width="80" height="80" as="geometry" />
        </mxCell>
        <mxCell id="K_3EB38ikw6anOw7ejb6-390" value="파티 하자!" style="whiteSpace=wrap;html=1;aspect=fixed;" vertex="1" parent="1">
          <mxGeometry x="220" y="2070" width="80" height="80" as="geometry" />
        </mxCell>
        <mxCell id="K_3EB38ikw6anOw7ejb6-391" value="운동 하자!" style="whiteSpace=wrap;html=1;aspect=fixed;" vertex="1" parent="1">
          <mxGeometry x="220" y="2200" width="80" height="80" as="geometry" />
        </mxCell>
        <mxCell id="K_3EB38ikw6anOw7ejb6-392" value="놀러 가자!" style="whiteSpace=wrap;html=1;aspect=fixed;" vertex="1" parent="1">
          <mxGeometry x="220" y="2330" width="80" height="80" as="geometry" />
        </mxCell>
        <mxCell id="K_3EB38ikw6anOw7ejb6-412" style="edgeStyle=orthogonalEdgeStyle;rounded=0;orthogonalLoop=1;jettySize=auto;html=1;exitX=1;exitY=0.5;exitDx=0;exitDy=0;entryX=0;entryY=0.5;entryDx=0;entryDy=0;" edge="1" parent="1" source="K_3EB38ikw6anOw7ejb6-407" target="K_3EB38ikw6anOw7ejb6-411">
          <mxGeometry relative="1" as="geometry" />
        </mxCell>
        <mxCell id="K_3EB38ikw6anOw7ejb6-407" value="spotify Get Track" style="whiteSpace=wrap;html=1;aspect=fixed;" vertex="1" parent="1">
          <mxGeometry x="430" y="230" width="80" height="80" as="geometry" />
        </mxCell>
        <mxCell id="K_3EB38ikw6anOw7ejb6-411" value="popularity" style="whiteSpace=wrap;html=1;aspect=fixed;" vertex="1" parent="1">
          <mxGeometry x="600" y="230" width="80" height="80" as="geometry" />
        </mxCell>
        <mxCell id="K_3EB38ikw6anOw7ejb6-420" style="edgeStyle=orthogonalEdgeStyle;rounded=0;orthogonalLoop=1;jettySize=auto;html=1;exitX=1;exitY=0.25;exitDx=0;exitDy=0;entryX=0.013;entryY=0.4;entryDx=0;entryDy=0;entryPerimeter=0;" edge="1" parent="1" source="K_3EB38ikw6anOw7ejb6-414" target="K_3EB38ikw6anOw7ejb6-419">
          <mxGeometry relative="1" as="geometry" />
        </mxCell>
        <mxCell id="K_3EB38ikw6anOw7ejb6-421" style="edgeStyle=orthogonalEdgeStyle;rounded=0;orthogonalLoop=1;jettySize=auto;html=1;exitX=1;exitY=0.75;exitDx=0;exitDy=0;entryX=0;entryY=0.5;entryDx=0;entryDy=0;" edge="1" parent="1" source="K_3EB38ikw6anOw7ejb6-414" target="K_3EB38ikw6anOw7ejb6-415">
          <mxGeometry relative="1" as="geometry" />
        </mxCell>
        <mxCell id="K_3EB38ikw6anOw7ejb6-414" value="Get User&#39;s Top Items" style="whiteSpace=wrap;html=1;aspect=fixed;" vertex="1" parent="1">
          <mxGeometry x="600" y="350" width="80" height="80" as="geometry" />
        </mxCell>
        <mxCell id="K_3EB38ikw6anOw7ejb6-425" style="edgeStyle=orthogonalEdgeStyle;rounded=0;orthogonalLoop=1;jettySize=auto;html=1;exitX=1;exitY=0.5;exitDx=0;exitDy=0;entryX=0;entryY=0.5;entryDx=0;entryDy=0;" edge="1" parent="1" source="K_3EB38ikw6anOw7ejb6-415" target="K_3EB38ikw6anOw7ejb6-423">
          <mxGeometry relative="1" as="geometry" />
        </mxCell>
        <mxCell id="K_3EB38ikw6anOw7ejb6-415" value="Track Object" style="whiteSpace=wrap;html=1;aspect=fixed;" vertex="1" parent="1">
          <mxGeometry x="780" y="410" width="80" height="80" as="geometry" />
        </mxCell>
        <mxCell id="K_3EB38ikw6anOw7ejb6-418" style="edgeStyle=orthogonalEdgeStyle;rounded=0;orthogonalLoop=1;jettySize=auto;html=1;exitX=1;exitY=0.5;exitDx=0;exitDy=0;entryX=0;entryY=0.5;entryDx=0;entryDy=0;" edge="1" parent="1" source="K_3EB38ikw6anOw7ejb6-416" target="K_3EB38ikw6anOw7ejb6-414">
          <mxGeometry relative="1" as="geometry" />
        </mxCell>
        <mxCell id="K_3EB38ikw6anOw7ejb6-416" value="사용자 선호도에 따른 상위 track" style="whiteSpace=wrap;html=1;aspect=fixed;" vertex="1" parent="1">
          <mxGeometry x="430" y="350" width="80" height="80" as="geometry" />
        </mxCell>
        <mxCell id="K_3EB38ikw6anOw7ejb6-424" style="edgeStyle=orthogonalEdgeStyle;rounded=0;orthogonalLoop=1;jettySize=auto;html=1;exitX=1;exitY=0.5;exitDx=0;exitDy=0;entryX=0;entryY=0.5;entryDx=0;entryDy=0;" edge="1" parent="1" source="K_3EB38ikw6anOw7ejb6-419" target="K_3EB38ikw6anOw7ejb6-422">
          <mxGeometry relative="1" as="geometry" />
        </mxCell>
        <mxCell id="K_3EB38ikw6anOw7ejb6-419" value="ArtisObject" style="whiteSpace=wrap;html=1;aspect=fixed;" vertex="1" parent="1">
          <mxGeometry x="780" y="300" width="80" height="80" as="geometry" />
        </mxCell>
        <mxCell id="K_3EB38ikw6anOw7ejb6-422" value="popularity" style="whiteSpace=wrap;html=1;aspect=fixed;" vertex="1" parent="1">
          <mxGeometry x="920" y="300" width="80" height="80" as="geometry" />
        </mxCell>
        <mxCell id="K_3EB38ikw6anOw7ejb6-423" value="popularity" style="whiteSpace=wrap;html=1;aspect=fixed;" vertex="1" parent="1">
          <mxGeometry x="920" y="410" width="80" height="80" as="geometry" />
        </mxCell>
        <mxCell id="K_3EB38ikw6anOw7ejb6-464" style="rounded=0;orthogonalLoop=1;jettySize=auto;html=1;exitX=0;exitY=0.25;exitDx=0;exitDy=0;entryX=1;entryY=0.5;entryDx=0;entryDy=0;strokeColor=none;" edge="1" parent="1" source="K_3EB38ikw6anOw7ejb6-433">
          <mxGeometry relative="1" as="geometry">
            <mxPoint x="1125.0000000000146" y="610" as="targetPoint" />
          </mxGeometry>
        </mxCell>
        <mxCell id="K_3EB38ikw6anOw7ejb6-518" style="edgeStyle=orthogonalEdgeStyle;shape=connector;rounded=0;orthogonalLoop=1;jettySize=auto;html=1;exitX=0.25;exitY=0;exitDx=0;exitDy=0;entryX=1;entryY=0.5;entryDx=0;entryDy=0;labelBackgroundColor=default;strokeColor=default;fontFamily=Helvetica;fontSize=11;fontColor=default;endArrow=classic;" edge="1" parent="1" source="K_3EB38ikw6anOw7ejb6-433" target="K_3EB38ikw6anOw7ejb6-516">
          <mxGeometry relative="1" as="geometry" />
        </mxCell>
        <mxCell id="K_3EB38ikw6anOw7ejb6-519" style="edgeStyle=orthogonalEdgeStyle;shape=connector;rounded=0;orthogonalLoop=1;jettySize=auto;html=1;exitX=0;exitY=0.25;exitDx=0;exitDy=0;entryX=1;entryY=0.5;entryDx=0;entryDy=0;labelBackgroundColor=default;strokeColor=default;fontFamily=Helvetica;fontSize=11;fontColor=default;endArrow=classic;" edge="1" parent="1" source="K_3EB38ikw6anOw7ejb6-433" target="K_3EB38ikw6anOw7ejb6-517">
          <mxGeometry relative="1" as="geometry" />
        </mxCell>
        <mxCell id="K_3EB38ikw6anOw7ejb6-520" style="edgeStyle=orthogonalEdgeStyle;shape=connector;rounded=0;orthogonalLoop=1;jettySize=auto;html=1;exitX=0;exitY=0.75;exitDx=0;exitDy=0;entryX=1;entryY=0.5;entryDx=0;entryDy=0;labelBackgroundColor=default;strokeColor=default;fontFamily=Helvetica;fontSize=11;fontColor=default;endArrow=classic;" edge="1" parent="1" source="K_3EB38ikw6anOw7ejb6-433" target="K_3EB38ikw6anOw7ejb6-515">
          <mxGeometry relative="1" as="geometry" />
        </mxCell>
        <mxCell id="K_3EB38ikw6anOw7ejb6-521" style="edgeStyle=orthogonalEdgeStyle;shape=connector;rounded=0;orthogonalLoop=1;jettySize=auto;html=1;exitX=0.25;exitY=1;exitDx=0;exitDy=0;entryX=1;entryY=0.5;entryDx=0;entryDy=0;labelBackgroundColor=default;strokeColor=default;fontFamily=Helvetica;fontSize=11;fontColor=default;endArrow=classic;" edge="1" parent="1" source="K_3EB38ikw6anOw7ejb6-433" target="K_3EB38ikw6anOw7ejb6-514">
          <mxGeometry relative="1" as="geometry" />
        </mxCell>
        <mxCell id="K_3EB38ikw6anOw7ejb6-433" value="날씨" style="whiteSpace=wrap;html=1;aspect=fixed;" vertex="1" parent="1">
          <mxGeometry x="1620" y="460" width="80" height="80" as="geometry" />
        </mxCell>
        <mxCell id="K_3EB38ikw6anOw7ejb6-478" style="edgeStyle=none;shape=connector;rounded=0;orthogonalLoop=1;jettySize=auto;html=1;exitX=0;exitY=0.5;exitDx=0;exitDy=0;entryX=1;entryY=0.5;entryDx=0;entryDy=0;labelBackgroundColor=default;strokeColor=default;fontFamily=Helvetica;fontSize=11;fontColor=default;endArrow=classic;" edge="1" parent="1" source="K_3EB38ikw6anOw7ejb6-434" target="K_3EB38ikw6anOw7ejb6-475">
          <mxGeometry relative="1" as="geometry" />
        </mxCell>
        <mxCell id="K_3EB38ikw6anOw7ejb6-434" value="일출,일중,&lt;br&gt;일몰" style="whiteSpace=wrap;html=1;aspect=fixed;" vertex="1" parent="1">
          <mxGeometry x="1620" y="770" width="80" height="80" as="geometry" />
        </mxCell>
        <mxCell id="K_3EB38ikw6anOw7ejb6-477" style="edgeStyle=none;shape=connector;rounded=0;orthogonalLoop=1;jettySize=auto;html=1;exitX=0;exitY=0.5;exitDx=0;exitDy=0;entryX=1;entryY=0.5;entryDx=0;entryDy=0;labelBackgroundColor=default;strokeColor=default;fontFamily=Helvetica;fontSize=11;fontColor=default;endArrow=classic;" edge="1" parent="1" source="K_3EB38ikw6anOw7ejb6-437" target="K_3EB38ikw6anOw7ejb6-474">
          <mxGeometry relative="1" as="geometry" />
        </mxCell>
        <mxCell id="K_3EB38ikw6anOw7ejb6-437" value="기온" style="whiteSpace=wrap;html=1;aspect=fixed;" vertex="1" parent="1">
          <mxGeometry x="1620" y="670" width="80" height="80" as="geometry" />
        </mxCell>
        <mxCell id="K_3EB38ikw6anOw7ejb6-532" style="edgeStyle=none;shape=connector;rounded=0;orthogonalLoop=1;jettySize=auto;html=1;exitX=0;exitY=0.5;exitDx=0;exitDy=0;entryX=1;entryY=0.5;entryDx=0;entryDy=0;labelBackgroundColor=default;strokeColor=default;fontFamily=Helvetica;fontSize=11;fontColor=default;endArrow=classic;" edge="1" parent="1" source="K_3EB38ikw6anOw7ejb6-438" target="K_3EB38ikw6anOw7ejb6-531">
          <mxGeometry relative="1" as="geometry" />
        </mxCell>
        <mxCell id="K_3EB38ikw6anOw7ejb6-438" value="월출,월중,&lt;br&gt;월몰" style="whiteSpace=wrap;html=1;aspect=fixed;" vertex="1" parent="1">
          <mxGeometry x="1620" y="870" width="80" height="80" as="geometry" />
        </mxCell>
        <mxCell id="K_3EB38ikw6anOw7ejb6-451" style="edgeStyle=orthogonalEdgeStyle;rounded=0;orthogonalLoop=1;jettySize=auto;html=1;exitX=0;exitY=0;exitDx=0;exitDy=0;entryX=1;entryY=0.5;entryDx=0;entryDy=0;" edge="1" parent="1" source="K_3EB38ikw6anOw7ejb6-450" target="K_3EB38ikw6anOw7ejb6-433">
          <mxGeometry relative="1" as="geometry" />
        </mxCell>
        <mxCell id="K_3EB38ikw6anOw7ejb6-452" style="edgeStyle=orthogonalEdgeStyle;rounded=0;orthogonalLoop=1;jettySize=auto;html=1;exitX=0;exitY=0.25;exitDx=0;exitDy=0;entryX=1;entryY=0.5;entryDx=0;entryDy=0;" edge="1" parent="1" source="K_3EB38ikw6anOw7ejb6-450" target="K_3EB38ikw6anOw7ejb6-437">
          <mxGeometry relative="1" as="geometry" />
        </mxCell>
        <mxCell id="K_3EB38ikw6anOw7ejb6-453" style="edgeStyle=orthogonalEdgeStyle;rounded=0;orthogonalLoop=1;jettySize=auto;html=1;exitX=0;exitY=0.75;exitDx=0;exitDy=0;entryX=1;entryY=0.5;entryDx=0;entryDy=0;" edge="1" parent="1" source="K_3EB38ikw6anOw7ejb6-450" target="K_3EB38ikw6anOw7ejb6-434">
          <mxGeometry relative="1" as="geometry" />
        </mxCell>
        <mxCell id="K_3EB38ikw6anOw7ejb6-454" style="edgeStyle=orthogonalEdgeStyle;rounded=0;orthogonalLoop=1;jettySize=auto;html=1;exitX=0;exitY=1;exitDx=0;exitDy=0;entryX=1;entryY=0.5;entryDx=0;entryDy=0;" edge="1" parent="1" source="K_3EB38ikw6anOw7ejb6-450" target="K_3EB38ikw6anOw7ejb6-438">
          <mxGeometry relative="1" as="geometry" />
        </mxCell>
        <mxCell id="K_3EB38ikw6anOw7ejb6-450" value="공공 데이터" style="whiteSpace=wrap;html=1;aspect=fixed;" vertex="1" parent="1">
          <mxGeometry x="1790" y="720" width="80" height="80" as="geometry" />
        </mxCell>
        <mxCell id="K_3EB38ikw6anOw7ejb6-509" style="edgeStyle=orthogonalEdgeStyle;shape=connector;rounded=0;orthogonalLoop=1;jettySize=auto;html=1;exitX=0;exitY=0.5;exitDx=0;exitDy=0;entryX=1;entryY=0.5;entryDx=0;entryDy=0;labelBackgroundColor=default;strokeColor=default;fontFamily=Helvetica;fontSize=11;fontColor=default;endArrow=classic;" edge="1" parent="1" source="K_3EB38ikw6anOw7ejb6-474" target="K_3EB38ikw6anOw7ejb6-486">
          <mxGeometry relative="1" as="geometry" />
        </mxCell>
        <mxCell id="K_3EB38ikw6anOw7ejb6-474" value="UP&lt;br&gt;----------&lt;br&gt;DOWN" style="ellipse;whiteSpace=wrap;html=1;aspect=fixed;" vertex="1" parent="1">
          <mxGeometry x="1060" y="677.5" width="65" height="65" as="geometry" />
        </mxCell>
        <mxCell id="K_3EB38ikw6anOw7ejb6-510" style="edgeStyle=orthogonalEdgeStyle;shape=connector;rounded=0;orthogonalLoop=1;jettySize=auto;html=1;exitX=0;exitY=0.5;exitDx=0;exitDy=0;entryX=1;entryY=0.5;entryDx=0;entryDy=0;labelBackgroundColor=default;strokeColor=default;fontFamily=Helvetica;fontSize=11;fontColor=default;endArrow=classic;" edge="1" parent="1" source="K_3EB38ikw6anOw7ejb6-475" target="K_3EB38ikw6anOw7ejb6-487">
          <mxGeometry relative="1" as="geometry" />
        </mxCell>
        <mxCell id="K_3EB38ikw6anOw7ejb6-475" value="UP&lt;br&gt;----------&lt;br&gt;DOWN&lt;br&gt;-----------&lt;br&gt;NULL" style="ellipse;whiteSpace=wrap;html=1;aspect=fixed;" vertex="1" parent="1">
          <mxGeometry x="1047.19" y="764.6899999999999" width="90.62" height="90.62" as="geometry" />
        </mxCell>
        <mxCell id="K_3EB38ikw6anOw7ejb6-500" style="edgeStyle=orthogonalEdgeStyle;shape=connector;rounded=0;orthogonalLoop=1;jettySize=auto;html=1;exitX=1;exitY=0;exitDx=0;exitDy=0;entryX=0;entryY=0.5;entryDx=0;entryDy=0;labelBackgroundColor=default;strokeColor=default;fontFamily=Helvetica;fontSize=11;fontColor=default;endArrow=classic;" edge="1" parent="1" source="K_3EB38ikw6anOw7ejb6-482" target="K_3EB38ikw6anOw7ejb6-485">
          <mxGeometry relative="1" as="geometry" />
        </mxCell>
        <mxCell id="K_3EB38ikw6anOw7ejb6-501" style="edgeStyle=orthogonalEdgeStyle;shape=connector;rounded=0;orthogonalLoop=1;jettySize=auto;html=1;exitX=1;exitY=0.25;exitDx=0;exitDy=0;entryX=0;entryY=0.5;entryDx=0;entryDy=0;labelBackgroundColor=default;strokeColor=default;fontFamily=Helvetica;fontSize=11;fontColor=default;endArrow=classic;" edge="1" parent="1" source="K_3EB38ikw6anOw7ejb6-482" target="K_3EB38ikw6anOw7ejb6-486">
          <mxGeometry relative="1" as="geometry" />
        </mxCell>
        <mxCell id="K_3EB38ikw6anOw7ejb6-502" style="edgeStyle=orthogonalEdgeStyle;shape=connector;rounded=0;orthogonalLoop=1;jettySize=auto;html=1;exitX=1;exitY=0.75;exitDx=0;exitDy=0;entryX=0;entryY=0.5;entryDx=0;entryDy=0;labelBackgroundColor=default;strokeColor=default;fontFamily=Helvetica;fontSize=11;fontColor=default;endArrow=classic;" edge="1" parent="1" source="K_3EB38ikw6anOw7ejb6-482" target="K_3EB38ikw6anOw7ejb6-487">
          <mxGeometry relative="1" as="geometry" />
        </mxCell>
        <mxCell id="K_3EB38ikw6anOw7ejb6-503" style="edgeStyle=orthogonalEdgeStyle;shape=connector;rounded=0;orthogonalLoop=1;jettySize=auto;html=1;exitX=1;exitY=1;exitDx=0;exitDy=0;entryX=0;entryY=0.5;entryDx=0;entryDy=0;labelBackgroundColor=default;strokeColor=default;fontFamily=Helvetica;fontSize=11;fontColor=default;endArrow=classic;" edge="1" parent="1" source="K_3EB38ikw6anOw7ejb6-482" target="K_3EB38ikw6anOw7ejb6-488">
          <mxGeometry relative="1" as="geometry" />
        </mxCell>
        <mxCell id="K_3EB38ikw6anOw7ejb6-482" value="audio-features" style="whiteSpace=wrap;html=1;aspect=fixed;" vertex="1" parent="1">
          <mxGeometry x="380" y="730" width="80" height="80" as="geometry" />
        </mxCell>
        <mxCell id="K_3EB38ikw6anOw7ejb6-504" style="edgeStyle=orthogonalEdgeStyle;shape=connector;rounded=0;orthogonalLoop=1;jettySize=auto;html=1;exitX=0.5;exitY=1;exitDx=0;exitDy=0;entryX=0.5;entryY=0;entryDx=0;entryDy=0;labelBackgroundColor=default;strokeColor=default;fontFamily=Helvetica;fontSize=11;fontColor=default;endArrow=classic;" edge="1" parent="1" source="K_3EB38ikw6anOw7ejb6-485" target="K_3EB38ikw6anOw7ejb6-486">
          <mxGeometry relative="1" as="geometry" />
        </mxCell>
        <mxCell id="K_3EB38ikw6anOw7ejb6-485" value="valence&lt;br&gt;-------------&lt;br&gt;mode" style="whiteSpace=wrap;html=1;aspect=fixed;" vertex="1" parent="1">
          <mxGeometry x="760" y="570" width="80" height="80" as="geometry" />
        </mxCell>
        <mxCell id="K_3EB38ikw6anOw7ejb6-505" style="edgeStyle=orthogonalEdgeStyle;shape=connector;rounded=0;orthogonalLoop=1;jettySize=auto;html=1;exitX=0.5;exitY=1;exitDx=0;exitDy=0;entryX=0.5;entryY=0;entryDx=0;entryDy=0;labelBackgroundColor=default;strokeColor=default;fontFamily=Helvetica;fontSize=11;fontColor=default;endArrow=classic;" edge="1" parent="1" source="K_3EB38ikw6anOw7ejb6-486" target="K_3EB38ikw6anOw7ejb6-487">
          <mxGeometry relative="1" as="geometry" />
        </mxCell>
        <mxCell id="K_3EB38ikw6anOw7ejb6-486" value="energy&lt;br&gt;------------&lt;br&gt;danceability" style="whiteSpace=wrap;html=1;aspect=fixed;" vertex="1" parent="1">
          <mxGeometry x="760" y="670" width="80" height="80" as="geometry" />
        </mxCell>
        <mxCell id="K_3EB38ikw6anOw7ejb6-506" style="edgeStyle=orthogonalEdgeStyle;shape=connector;rounded=0;orthogonalLoop=1;jettySize=auto;html=1;exitX=0.5;exitY=1;exitDx=0;exitDy=0;entryX=0.5;entryY=0;entryDx=0;entryDy=0;labelBackgroundColor=default;strokeColor=default;fontFamily=Helvetica;fontSize=11;fontColor=default;endArrow=classic;" edge="1" parent="1" source="K_3EB38ikw6anOw7ejb6-487" target="K_3EB38ikw6anOw7ejb6-488">
          <mxGeometry relative="1" as="geometry" />
        </mxCell>
        <mxCell id="K_3EB38ikw6anOw7ejb6-487" value="tempo&lt;br style=&quot;border-color: var(--border-color);&quot;&gt;------------&lt;br style=&quot;border-color: var(--border-color);&quot;&gt;loudness" style="whiteSpace=wrap;html=1;aspect=fixed;" vertex="1" parent="1">
          <mxGeometry x="760" y="770" width="80" height="80" as="geometry" />
        </mxCell>
        <mxCell id="K_3EB38ikw6anOw7ejb6-507" style="edgeStyle=orthogonalEdgeStyle;shape=connector;rounded=0;orthogonalLoop=1;jettySize=auto;html=1;exitX=0.5;exitY=1;exitDx=0;exitDy=0;entryX=0;entryY=0.5;entryDx=0;entryDy=0;labelBackgroundColor=default;strokeColor=default;fontFamily=Helvetica;fontSize=11;fontColor=default;endArrow=classic;" edge="1" parent="1" source="K_3EB38ikw6anOw7ejb6-488" target="K_3EB38ikw6anOw7ejb6-497">
          <mxGeometry relative="1" as="geometry" />
        </mxCell>
        <mxCell id="K_3EB38ikw6anOw7ejb6-488" value="tempo&lt;br&gt;------------&lt;br&gt;loudness" style="whiteSpace=wrap;html=1;aspect=fixed;" vertex="1" parent="1">
          <mxGeometry x="760" y="870" width="80" height="80" as="geometry" />
        </mxCell>
        <mxCell id="K_3EB38ikw6anOw7ejb6-497" value="TOTAL" style="whiteSpace=wrap;html=1;aspect=fixed;" vertex="1" parent="1">
          <mxGeometry x="1200" y="960" width="80" height="80" as="geometry" />
        </mxCell>
        <mxCell id="K_3EB38ikw6anOw7ejb6-526" style="shape=connector;rounded=0;orthogonalLoop=1;jettySize=auto;html=1;exitX=0;exitY=0.5;exitDx=0;exitDy=0;entryX=1;entryY=0.75;entryDx=0;entryDy=0;labelBackgroundColor=default;strokeColor=default;fontFamily=Helvetica;fontSize=11;fontColor=default;endArrow=classic;" edge="1" parent="1" source="K_3EB38ikw6anOw7ejb6-514" target="K_3EB38ikw6anOw7ejb6-485">
          <mxGeometry relative="1" as="geometry" />
        </mxCell>
        <mxCell id="K_3EB38ikw6anOw7ejb6-514" value="4.눈" style="ellipse;whiteSpace=wrap;html=1;aspect=fixed;" vertex="1" parent="1">
          <mxGeometry x="1430" y="592.5" width="65" height="65" as="geometry" />
        </mxCell>
        <mxCell id="K_3EB38ikw6anOw7ejb6-528" style="edgeStyle=none;shape=connector;rounded=0;orthogonalLoop=1;jettySize=auto;html=1;exitX=0;exitY=0.5;exitDx=0;exitDy=0;entryX=1;entryY=0.5;entryDx=0;entryDy=0;labelBackgroundColor=default;strokeColor=default;fontFamily=Helvetica;fontSize=11;fontColor=default;endArrow=classic;" edge="1" parent="1" source="K_3EB38ikw6anOw7ejb6-515" target="K_3EB38ikw6anOw7ejb6-485">
          <mxGeometry relative="1" as="geometry" />
        </mxCell>
        <mxCell id="K_3EB38ikw6anOw7ejb6-515" value="3.비" style="ellipse;whiteSpace=wrap;html=1;aspect=fixed;" vertex="1" parent="1">
          <mxGeometry x="1430" y="510" width="65" height="65" as="geometry" />
        </mxCell>
        <mxCell id="K_3EB38ikw6anOw7ejb6-530" style="edgeStyle=none;shape=connector;rounded=0;orthogonalLoop=1;jettySize=auto;html=1;exitX=0;exitY=0.5;exitDx=0;exitDy=0;entryX=1;entryY=0;entryDx=0;entryDy=0;labelBackgroundColor=default;strokeColor=default;fontFamily=Helvetica;fontSize=11;fontColor=default;endArrow=classic;" edge="1" parent="1" source="K_3EB38ikw6anOw7ejb6-516" target="K_3EB38ikw6anOw7ejb6-485">
          <mxGeometry relative="1" as="geometry" />
        </mxCell>
        <mxCell id="K_3EB38ikw6anOw7ejb6-516" value="1.맑음" style="ellipse;whiteSpace=wrap;html=1;aspect=fixed;" vertex="1" parent="1">
          <mxGeometry x="1430" y="350" width="65" height="65" as="geometry" />
        </mxCell>
        <mxCell id="K_3EB38ikw6anOw7ejb6-529" style="edgeStyle=none;shape=connector;rounded=0;orthogonalLoop=1;jettySize=auto;html=1;exitX=0;exitY=0.5;exitDx=0;exitDy=0;entryX=1;entryY=0.25;entryDx=0;entryDy=0;labelBackgroundColor=default;strokeColor=default;fontFamily=Helvetica;fontSize=11;fontColor=default;endArrow=classic;" edge="1" parent="1" source="K_3EB38ikw6anOw7ejb6-517" target="K_3EB38ikw6anOw7ejb6-485">
          <mxGeometry relative="1" as="geometry" />
        </mxCell>
        <mxCell id="K_3EB38ikw6anOw7ejb6-517" value="2.흐림" style="ellipse;whiteSpace=wrap;html=1;aspect=fixed;" vertex="1" parent="1">
          <mxGeometry x="1430" y="430" width="65" height="65" as="geometry" />
        </mxCell>
        <mxCell id="K_3EB38ikw6anOw7ejb6-533" style="edgeStyle=none;shape=connector;rounded=0;orthogonalLoop=1;jettySize=auto;html=1;exitX=0;exitY=0.5;exitDx=0;exitDy=0;entryX=1;entryY=0.5;entryDx=0;entryDy=0;labelBackgroundColor=default;strokeColor=default;fontFamily=Helvetica;fontSize=11;fontColor=default;endArrow=classic;" edge="1" parent="1" source="K_3EB38ikw6anOw7ejb6-531" target="K_3EB38ikw6anOw7ejb6-488">
          <mxGeometry relative="1" as="geometry" />
        </mxCell>
        <mxCell id="K_3EB38ikw6anOw7ejb6-531" value="UP&lt;br&gt;----------&lt;br&gt;DOWN&lt;br&gt;-----------&lt;br&gt;NULL" style="ellipse;whiteSpace=wrap;html=1;aspect=fixed;" vertex="1" parent="1">
          <mxGeometry x="1048.4399999999998" y="865.31" width="89.37" height="89.37" as="geometry" />
        </mxCell>
      </root>
    </mxGraphModel>
  </diagram>
</mxfile>
